<svg width="133" height="56" viewBox="0 0 133 56" fill="none" xmlns="http://www.w3.org/2000/svg">
<path d="M19.79 25.39L7.43 14.38L7.46 13.96C8.64 13.72 9.7 13.3 10.64 12.7C11.6 12.08 12.4 11.38 13.04 10.6C13.7 9.8 14.16 9.01 14.42 8.23C14.6 7.71 14.69 7.22 14.69 6.76C14.69 5.98 14.42 5.34 13.88 4.84C13.34 4.34 12.51 4.09 11.39 4.09C10.01 4.09 8.56 4.28 7.04 4.66L6.59 25H2.75L1.64 1.6H7.1L7.07 3.25C8.01 2.73 8.96 2.33 9.92 2.05C10.9 1.75 11.84 1.6 12.74 1.6C14.42 1.6 15.76 1.88 16.76 2.44C17.76 2.98 18.48 3.67 18.92 4.51C19.38 5.33 19.61 6.18 19.61 7.06C19.61 7.66 19.52 8.22 19.34 8.74C19.06 9.6 18.57 10.38 17.87 11.08C17.19 11.76 16.4 12.33 15.5 12.79C14.62 13.25 13.75 13.59 12.89 13.81L20.18 25.42L19.79 25.39ZM24.8984 25.3L23.7884 1.6H29.2484L29.1884 3.88L39.9884 1.3V6.16L29.1584 5.11L28.9784 12.7L38.4584 10.48V15.25L28.9484 13.9L28.7684 21.13L40.5884 22.39V22.69L24.8984 25.3ZM62.112 25.6C57.612 25.6 53.982 25.19 51.222 24.37C48.462 23.53 46.442 22.36 45.162 20.86C43.902 19.34 43.272 17.58 43.272 15.58C43.272 13.18 43.582 11.07 44.202 9.25C44.822 7.43 45.652 5.91 46.692 4.69C47.732 3.45 48.892 2.52 50.172 1.9C51.452 1.28 52.752 0.969998 54.072 0.969998C55.612 0.969998 57.162 1.13 58.722 1.45C60.282 1.77 61.702 2.26 62.982 2.92L61.302 7.81C60.042 6.53 58.722 5.53 57.342 4.81C55.982 4.07 54.592 3.7 53.172 3.7C52.492 3.7 51.842 4 51.222 4.6C50.602 5.18 50.052 5.95 49.572 6.91C49.092 7.85 48.712 8.89 48.432 10.03C48.172 11.17 48.042 12.28 48.042 13.36C48.042 14.76 48.222 16.03 48.582 17.17C48.942 18.29 49.552 19.3 50.412 20.2C51.292 21.08 52.482 21.85 53.982 22.51C55.502 23.15 57.412 23.69 59.712 24.13L59.052 16.18L52.722 14.68V14.32L63.762 11.62L63.012 25.6H62.112ZM85.8132 25.6C81.3132 25.6 77.6832 25.19 74.9232 24.37C72.1632 23.53 70.1432 22.36 68.8632 20.86C67.6032 19.34 66.9732 17.58 66.9732 15.58C66.9732 13.18 67.2832 11.07 67.9032 9.25C68.5232 7.43 69.3532 5.91 70.3932 4.69C71.4332 3.45 72.5932 2.52 73.8732 1.9C75.1532 1.28 76.4532 0.969998 77.7732 0.969998C79.3132 0.969998 80.8632 1.13 82.4232 1.45C83.9832 1.77 85.4032 2.26 86.6832 2.92L85.0032 7.81C83.7432 6.53 82.4232 5.53 81.0432 4.81C79.6832 4.07 78.2932 3.7 76.8732 3.7C76.1932 3.7 75.5432 4 74.9232 4.6C74.3032 5.18 73.7532 5.95 73.2732 6.91C72.7932 7.85 72.4132 8.89 72.1332 10.03C71.8732 11.17 71.7432 12.28 71.7432 13.36C71.7432 14.76 71.9232 16.03 72.2832 17.17C72.6432 18.29 73.2532 19.3 74.1132 20.2C74.9932 21.08 76.1832 21.85 77.6832 22.51C79.2032 23.15 81.1132 23.69 83.4132 24.13L82.7532 16.18L76.4232 14.68V14.32L87.4632 11.62L86.7132 25.6H85.8132ZM108.194 25.33L104.654 17.77L92.7744 19.84L89.6544 25.33H89.2044L97.3944 1.63L102.134 0.909999L111.734 24.94L108.194 25.33ZM99.7644 7.33L95.1144 15.64L104.294 17.05L99.7644 7.33ZM115.543 25.3L114.433 1.6H119.893L119.833 3.88L130.633 1.3V6.16L119.803 5.11L119.623 12.7L129.103 10.48V15.25L119.593 13.9L119.413 21.13L131.233 22.39V22.69L115.543 25.3ZM0.804 39.01H4.535L4.5145 40.0965C5.10217 39.7412 5.7035 39.4747 6.3185 39.297C6.9335 39.1057 7.54167 39.01 8.143 39.01C9.68733 39.01 10.8148 39.3107 11.5255 39.912C12.2498 40.4997 12.612 41.2377 12.612 42.126C12.612 42.208 12.6052 42.29 12.5915 42.372C12.5915 42.454 12.5847 42.536 12.571 42.618C12.489 43.274 12.1405 43.93 11.5255 44.586C10.9105 45.242 9.94017 45.8502 8.6145 46.4105C9.65317 46.4652 10.5278 46.677 11.2385 47.046C11.9492 47.415 12.489 47.8455 12.858 48.3375C13.227 48.8295 13.4115 49.301 13.4115 49.752C13.4115 50.8863 12.94 51.8703 11.997 52.704C11.0677 53.524 9.7215 54.1595 7.9585 54.6105C6.1955 55.0478 4.0635 55.2665 1.5625 55.2665L0.804 39.01ZM4.371 47.128C5.56 46.5677 6.50983 46.0005 7.2205 45.4265C7.94483 44.8525 8.471 44.3263 8.799 43.848C9.14067 43.356 9.332 42.9802 9.373 42.7205C9.38667 42.6658 9.3935 42.618 9.3935 42.577C9.3935 42.5223 9.3935 42.4677 9.3935 42.413C9.3935 41.9483 9.24317 41.5247 8.9425 41.142C8.64183 40.7457 8.23183 40.5475 7.7125 40.5475C7.12483 40.5475 6.57817 40.5817 6.0725 40.65C5.56683 40.7047 5.04067 40.814 4.494 40.978L4.371 47.128ZM4.207 54.303C5.355 54.0433 6.29117 53.7427 7.0155 53.401C7.7535 53.0457 8.32067 52.6698 8.717 52.2735C9.127 51.8772 9.414 51.474 9.578 51.064C9.742 50.6403 9.824 50.2235 9.824 49.8135C9.824 49.5812 9.74883 49.3557 9.5985 49.137C9.44817 48.9047 9.17483 48.6928 8.7785 48.5015C8.38217 48.2965 7.82183 48.1325 7.0975 48.0095C6.38683 47.8728 5.47117 47.7977 4.3505 47.784L4.207 54.303ZM28.3012 55.2665L19.8552 47.743L19.8757 47.456C20.6821 47.292 21.4064 47.005 22.0487 46.595C22.7047 46.1713 23.2514 45.693 23.6887 45.16C24.1397 44.6133 24.4541 44.0735 24.6317 43.5405C24.7547 43.1852 24.8162 42.8503 24.8162 42.536C24.8162 42.003 24.6317 41.5657 24.2627 41.224C23.8937 40.8823 23.3266 40.7115 22.5612 40.7115C21.6182 40.7115 20.6274 40.8413 19.5887 41.101L19.2812 55H16.6572L15.8987 39.01H19.6297L19.6092 40.1375C20.2516 39.7822 20.9007 39.5088 21.5567 39.3175C22.2264 39.1125 22.8687 39.01 23.4837 39.01C24.6317 39.01 25.5474 39.2013 26.2307 39.584C26.9141 39.953 27.4061 40.4245 27.7067 40.9985C28.0211 41.5588 28.1782 42.1397 28.1782 42.741C28.1782 43.151 28.1167 43.5337 27.9937 43.889C27.8024 44.4767 27.4676 45.0097 26.9892 45.488C26.5246 45.9527 25.9847 46.3422 25.3697 46.6565C24.7684 46.9708 24.1739 47.2032 23.5862 47.3535L28.5677 55.287L28.3012 55.2665ZM42.1855 55.2255L39.7665 50.0595L31.6485 51.474L29.5165 55.2255H29.209L34.8055 39.0305L38.0445 38.5385L44.6045 54.959L42.1855 55.2255ZM36.425 42.9255L33.2475 48.604L39.5205 49.5675L36.425 42.9255ZM58.0105 50.777C57.9285 51.9523 57.6005 52.8817 57.0265 53.565C56.4525 54.2347 55.7282 54.713 54.8535 55C53.9925 55.2733 53.0632 55.41 52.0655 55.41C51.3549 55.41 50.5827 55.2255 49.749 54.8565C48.929 54.4875 48.1295 53.934 47.3505 53.196C46.5715 52.458 45.8882 51.5287 45.3005 50.408L45.444 50.2645C45.9907 50.6882 46.5715 51.0708 47.1865 51.4125C47.8152 51.7542 48.437 52.048 49.052 52.294C49.667 52.5263 50.2342 52.704 50.7535 52.827C51.2865 52.95 51.717 53.0115 52.045 53.0115C52.6874 53.0115 53.2272 52.8612 53.6645 52.5605C54.1155 52.2598 54.3752 51.761 54.4435 51.064V51.0025C54.4435 50.7018 54.2454 50.3875 53.849 50.0595C53.4527 49.7178 52.9334 49.3557 52.291 48.973C51.6624 48.5903 50.9927 48.1872 50.282 47.7635C49.585 47.3398 48.9222 46.9025 48.2935 46.4515C47.6649 45.9868 47.1455 45.5085 46.7355 45.0165C46.3392 44.5245 46.141 44.012 46.141 43.479C46.141 43.4107 46.141 43.356 46.141 43.315C46.141 43.2603 46.1479 43.2057 46.1615 43.151C46.3255 42.2353 46.6877 41.4358 47.248 40.7525C47.822 40.0692 48.5054 39.5362 49.298 39.1535C50.1044 38.7708 50.938 38.5795 51.799 38.5795C52.6737 38.5795 53.6099 38.7162 54.6075 38.9895C55.6189 39.2492 56.6507 39.625 57.703 40.117L56.555 43.4585C55.489 42.4198 54.5734 41.6545 53.808 41.1625C53.0427 40.6705 52.3184 40.4245 51.635 40.4245C50.897 40.4245 50.3299 40.609 49.9335 40.978C49.5509 41.3333 49.3322 41.9347 49.2775 42.782V42.8435C49.2775 43.1578 49.4347 43.4722 49.749 43.7865C50.0634 44.1008 50.4802 44.422 50.9995 44.75C51.5189 45.0643 52.086 45.3923 52.701 45.734C53.3297 46.062 53.9515 46.4105 54.5665 46.7795C55.1952 47.1348 55.7692 47.5175 56.2885 47.9275C56.8079 48.3238 57.2247 48.7475 57.539 49.1985C57.8534 49.6358 58.0105 50.1073 58.0105 50.613V50.777ZM61.7788 55L61.2048 39.01H65.0588L64.4848 55H61.7788ZM69.3243 55.2665L68.7503 39.01H72.5428L71.9688 51.9865L79.3283 53.0935L79.3078 53.36L69.3243 55.2665ZM82.5015 55.205L81.743 39.01H85.474L85.433 40.568L92.813 38.805V42.126L85.4125 41.4085L85.2895 46.595L91.7675 45.078V48.3375L85.269 47.415L85.146 52.3555L93.223 53.2165V53.4215L82.5015 55.205ZM96.5328 55L95.9588 39.01H99.8128L99.2388 55H96.5328ZM115.907 55.2665L107.461 47.743L107.481 47.456C108.288 47.292 109.012 47.005 109.654 46.595C110.31 46.1713 110.857 45.693 111.294 45.16C111.745 44.6133 112.06 44.0735 112.237 43.5405C112.36 43.1852 112.422 42.8503 112.422 42.536C112.422 42.003 112.237 41.5657 111.868 41.224C111.499 40.8823 110.932 40.7115 110.167 40.7115C109.224 40.7115 108.233 40.8413 107.194 41.101L106.887 55H104.263L103.504 39.01H107.235L107.215 40.1375C107.857 39.7822 108.506 39.5088 109.162 39.3175C109.832 39.1125 110.474 39.01 111.089 39.01C112.237 39.01 113.153 39.2013 113.836 39.584C114.52 39.953 115.012 40.4245 115.312 40.9985C115.627 41.5588 115.784 42.1397 115.784 42.741C115.784 43.151 115.722 43.5337 115.599 43.889C115.408 44.4767 115.073 45.0097 114.595 45.488C114.13 45.9527 113.59 46.3422 112.975 46.6565C112.374 46.9708 111.779 47.2032 111.192 47.3535L116.173 55.287L115.907 55.2665ZM125.199 55.41C124.42 55.41 123.6 55.2187 122.739 54.836C121.892 54.4397 121.092 53.8725 120.34 53.1345C119.589 52.3965 118.981 51.5082 118.516 50.4695C118.051 49.4308 117.819 48.2623 117.819 46.964C117.819 45.9527 117.969 45.0165 118.27 44.1555C118.584 43.2808 119.001 42.5018 119.52 41.8185C120.04 41.1352 120.621 40.5543 121.263 40.076C121.905 39.584 122.561 39.215 123.231 38.969C123.914 38.7093 124.57 38.5795 125.199 38.5795C125.814 38.5795 126.456 38.7093 127.126 38.969C127.809 39.2287 128.465 39.6045 129.094 40.0965C129.736 40.5748 130.317 41.1557 130.836 41.839C131.356 42.5223 131.766 43.2945 132.066 44.1555C132.367 45.0165 132.517 45.9527 132.517 46.964C132.517 48.2623 132.285 49.4308 131.82 50.4695C131.356 51.5082 130.754 52.3965 130.016 53.1345C129.278 53.8725 128.486 54.4397 127.638 54.836C126.791 55.2187 125.978 55.41 125.199 55.41ZM126.019 53.647C126.661 53.647 127.228 53.4352 127.72 53.0115C128.212 52.5878 128.595 52.0002 128.868 51.2485C129.155 50.4832 129.299 49.6017 129.299 48.604C129.299 47.2237 129.142 46.021 128.827 44.996C128.513 43.9573 128.103 43.0963 127.597 42.413C127.092 41.7297 126.552 41.2172 125.978 40.8755C125.418 40.5338 124.885 40.363 124.379 40.363C123.75 40.363 123.183 40.5748 122.677 40.9985C122.172 41.4085 121.769 41.9825 121.468 42.7205C121.181 43.4585 121.037 44.3263 121.037 45.324C121.037 46.7863 121.195 48.0437 121.509 49.096C121.837 50.1483 122.254 51.0093 122.759 51.679C123.279 52.3487 123.825 52.8475 124.399 53.1755C124.973 53.4898 125.513 53.647 126.019 53.647Z" fill="url(#paint0_linear_110_270)"/>
<defs>
<linearGradient id="paint0_linear_110_270" x1="-1" y1="25.5" x2="134" y2="25.5" gradientUnits="userSpaceOnUse">
<stop offset="0.114583" stop-color="#00A303"/>
<stop offset="0.395833" stop-color="#FFF200"/>
<stop offset="0.640625" stop-color="#FFF200"/>
<stop offset="0.911458" stop-color="#CC0000"/>
</linearGradient>
</defs>
</svg>
